# xmcd
# 
# Track frame offsets:
#     225
#     12257
#     46923
#     91127
#     137934
#     157454
#     178538
#     241722
#     273646
# 
# Disc length: 3754
# 
# Revision: 1
# Processed by: cddbd v1.5.2PL0 Copyright (c) Steve Scherf et al.
# Submitted via: BonkEnc v1.0.8
# 
DISCID=770ea709
DTITLE=Paul Smoker - Brass Reality
DYEAR=2000
DGENRE=Contemporary Jazz
TTITLE0=Solo Prelude
TTITLE1=Fractals, Part 1
TTITLE2=Waltz
TTITLE3=Fanfare and Procession
TTITLE4=Harmon City
TTITLE5=Phil's Blues
TTITLE6=Alice's Legacy
TTITLE7=Fractals, Part 2
TTITLE8=Coda: Brass Reality
EXTD=YEAR: 2001
EXTT0=
EXTT1=
EXTT2=
EXTT3=
EXTT4=
EXTT5=
EXTT6=
EXTT7=
EXTT8=
PLAYORDER=
